<?xml version="1.0" standalone="no"?>
<!DOCTYPE svg PUBLIC "-//W3C//DTD SVG 20010904//EN"
 "http://www.w3.org/TR/2001/REC-SVG-20010904/DTD/svg10.dtd">
<svg version="1.0" xmlns="http://www.w3.org/2000/svg"
 width="1280.000000pt" height="1066.000000pt" viewBox="0 0 1280.000000 1066.000000"
 preserveAspectRatio="xMidYMid meet">
<g transform="translate(0.000000,1066.000000) scale(0.100000,-0.100000)"
fill="#000000" stroke="none">
<path d="M6750 10648 c-36 -4 -115 -15 -177 -23 -749 -96 -1445 -536 -1867
-1181 -283 -433 -426 -920 -426 -1449 0 -433 87 -806 277 -1187 278 -556 762
-1013 1327 -1253 266 -113 463 -162 836 -211 42 -5 50 -9 35 -15 -25 -10
-4431 -10 -4465 0 -21 6 -15 9 30 15 122 16 290 48 377 72 344 92 669 281 929
539 183 182 300 345 414 577 393 800 243 1759 -375 2397 -415 429 -935 651
-1525 651 -267 0 -444 -28 -680 -106 -598 -198 -1082 -660 -1310 -1252 -69
-177 -96 -300 -141 -622 -29 -209 33 -610 136 -885 242 -644 798 -1141 1468
-1311 83 -21 312 -60 377 -65 8 -1 4 -5 -10 -9 -14 -4 -356 -8 -761 -9 -452
-1 -757 -5 -790 -11 -92 -17 -194 -73 -263 -142 -72 -74 -117 -153 -145 -260
-21 -77 -21 -85 -21 -2243 l0 -2165 21 -77 c30 -109 74 -188 144 -258 71 -71
152 -116 257 -144 l78 -21 4300 0 4300 0 77 21 c43 12 105 35 138 53 77 40
172 135 213 212 65 124 62 51 62 1545 0 1176 2 1358 15 1369 23 19 1275 8
1416 -13 296 -44 485 -122 608 -252 74 -78 103 -147 112 -266 4 -53 13 -116
19 -140 35 -128 141 -261 259 -323 213 -112 454 -75 621 95 67 68 111 147 139
252 21 76 21 90 21 1177 0 1081 0 1102 -21 1178 -28 106 -73 186 -144 258
-226 228 -606 198 -792 -63 -61 -86 -91 -177 -102 -307 -10 -134 -38 -195
-131 -286 -152 -150 -402 -228 -795 -250 -236 -13 -1181 -13 -1206 0 -18 10
-19 24 -19 299 0 159 -4 313 -10 342 -16 87 -75 196 -144 265 -69 69 -178 128
-265 144 -33 6 -432 10 -1045 11 -545 1 -1002 5 -1016 9 -14 4 -20 8 -14 9 88
8 344 48 429 67 370 83 771 277 1075 520 109 87 317 295 404 404 252 316 441
710 525 1095 45 208 55 311 55 570 0 259 -10 362 -55 570 -107 492 -355 942
-719 1305 -425 425 -968 692 -1550 760 -52 6 -125 15 -162 20 -80 12 -258 11
-348 -2z m505 -1078 c220 -47 437 -142 615 -268 121 -86 286 -251 372 -372
125 -176 222 -399 268 -615 28 -130 37 -376 20 -511 -77 -616 -502 -1138
-1085 -1333 -187 -62 -278 -76 -515 -75 -184 0 -229 3 -313 22 -541 120 -959
464 -1170 962 -138 327 -159 725 -56 1071 167 564 646 1003 1218 1118 140 29
148 29 356 26 149 -2 212 -8 290 -25z m-4913 -1054 c270 -53 525 -221 678
-447 62 -91 128 -235 157 -346 22 -85 26 -119 26 -253 0 -109 -4 -176 -16
-225 -101 -440 -436 -765 -866 -840 -557 -98 -1085 246 -1232 802 -14 53 -22
122 -26 218 -6 160 14 287 68 425 83 217 262 425 464 541 230 132 488 175 747
125z"/>
</g>
</svg>
